<svg xmlns="http://www.w3.org/2000/svg" viewBox="0 0 716 176" width="716" height="176" role="img" aria-label="Warehouse requests" font-family="'Segoe UI', system-ui, -apple-system, sans-serif">
<title>Warehouse requests</title>
<rect width="100%" height="100%" fill="#ffffff"/>
<defs><marker id="arrow-Process_use-case-warehouse-requests" viewBox="0 0 10 10" refX="9.5" refY="5" markerWidth="8" markerHeight="8" orient="auto-start-reverse"><path d="M0 1L10 5L0 9z" fill="#5b6470"/></marker></defs>
<rect x="24" y="24" width="668" height="128" fill="#ffffff" stroke="#9aa4b0" stroke-width="1.2"/>
<rect x="24" y="24" width="30" height="128" fill="#f3f6f9" stroke="#9aa4b0" stroke-width="1.2"/>
<g transform="rotate(-90 39 88)"><text x="39" font-size="12" font-weight="600" fill="#1b1f24" text-anchor="middle" dominant-baseline="middle"><tspan x="39" y="80.5">Warehouse</tspan><tspan x="39" y="95.5">requests</tspan></text></g>
<rect x="54" y="24" width="638" height="128" fill="none" stroke="#9aa4b0" stroke-width="1"/>
<rect x="54" y="24" width="30" height="128" fill="#f3f6f9" stroke="#9aa4b0" stroke-width="1"/>
<g transform="rotate(-90 69 88)"><text x="69" font-size="12" font-weight="400" fill="#1b1f24" text-anchor="middle" dominant-baseline="middle"><tspan x="69" y="80.5">WAREHOUSE</tspan><tspan x="69" y="95.5">PROCESS</tspan></text></g>
<polyline points="144,88 200,88" fill="none" stroke="#5b6470" stroke-width="1.5" stroke-linejoin="round" marker-end="url(#arrow-Process_use-case-warehouse-requests)"/>
<polyline points="360,88 416,88" fill="none" stroke="#5b6470" stroke-width="1.5" stroke-linejoin="round" marker-end="url(#arrow-Process_use-case-warehouse-requests)"/>
<polyline points="576,88 632,88" fill="none" stroke="#5b6470" stroke-width="1.5" stroke-linejoin="round" marker-end="url(#arrow-Process_use-case-warehouse-requests)"/>
<g class="bpmn-start"><circle cx="126" cy="88" r="18" fill="#e8f5e9" stroke="#2e7d32" stroke-width="1.6"/></g>
<g class="bpmn-subprocess"><title>Create a new Warehouse Request.</title><rect x="200" y="46" width="160" height="84" rx="10" fill="#eef4fd" stroke="#0b62d6" stroke-width="1.6"/><rect x="273" y="114" width="14" height="14" rx="2" fill="#fff" stroke="#0b62d6" stroke-width="1.2"/><path d="M280 117V125M276 121H284" stroke="#0b62d6" stroke-width="1.4"/><text x="280" font-size="12" font-weight="600" fill="#1b1f24" text-anchor="middle" dominant-baseline="middle"><tspan x="280" y="72.5">Create a new</tspan><tspan x="280" y="87.5">Warehouse Request</tspan></text></g>
<g class="bpmn-subprocess"><title>Process an existing warehouse request from the request list.</title><rect x="416" y="46" width="160" height="84" rx="10" fill="#eef4fd" stroke="#0b62d6" stroke-width="1.6"/><rect x="489" y="114" width="14" height="14" rx="2" fill="#fff" stroke="#0b62d6" stroke-width="1.2"/><path d="M496 117V125M492 121H500" stroke="#0b62d6" stroke-width="1.4"/><text x="496" font-size="12" font-weight="600" fill="#1b1f24" text-anchor="middle" dominant-baseline="middle"><tspan x="496" y="65.0">Process an existing</tspan><tspan x="496" y="80.0">warehouse request</tspan><tspan x="496" y="95.0">from the request list</tspan></text></g>
<g class="bpmn-end"><circle cx="650" cy="88" r="18" fill="#fdecea" stroke="#c62828" stroke-width="3.5"/></g>
</svg>
